<?xml version="1.0" standalone="no"?>
<!DOCTYPE svg PUBLIC "-//W3C//DTD SVG 20010904//EN"
 "http://www.w3.org/TR/2001/REC-SVG-20010904/DTD/svg10.dtd">
<svg version="1.0" xmlns="http://www.w3.org/2000/svg"
 width="357.000000pt" height="364.000000pt" viewBox="0 0 357.000000 364.000000"
 preserveAspectRatio="xMidYMid meet">

<g transform="translate(0.000000,364.000000) scale(0.100000,-0.100000)"
fill="#000000" stroke="none">
<path d="M0 1820 l0 -1820 1785 0 1785 0 0 1820 0 1820 -1785 0 -1785 0 0
-1820z m2345 1235 c32 -7 92 -59 112 -99 24 -46 21 -126 -7 -170 -38 -62 -84
-90 -155 -94 -117 -8 -196 59 -203 173 -6 96 43 166 135 191 45 11 57 11 118
-1z m113 -1272 l-3 -738 -26 -56 c-67 -143 -183 -209 -393 -225 -52 -3 -106
-4 -120 0 l-26 6 0 135 0 135 43 0 c61 0 110 16 138 46 l24 26 3 704 3 704
180 0 180 0 -3 -737z m-914 701 c156 -38 281 -170 305 -324 l8 -50 -79 0 c-54
0 -80 4 -82 13 -25 88 -35 106 -81 152 -61 61 -125 85 -229 85 -88 0 -137 -13
-198 -52 -110 -69 -119 -237 -16 -305 45 -30 97 -48 278 -93 177 -44 244 -68
306 -111 82 -56 124 -140 124 -249 0 -162 -126 -304 -316 -355 -79 -22 -259
-22 -338 0 -172 46 -308 182 -332 333 l-7 42 87 0 c75 0 86 -2 86 -17 0 -32
47 -117 81 -150 19 -18 57 -42 84 -55 44 -20 66 -23 176 -23 120 0 128 1 184
30 40 20 69 45 90 73 26 38 30 52 30 112 0 61 -3 72 -31 107 -43 53 -95 76
-303 127 -208 52 -295 89 -361 155 -57 57 -80 119 -80 216 0 151 107 282 273
335 91 29 231 31 341 4z"/>
</g>
</svg>
